<svg height="512pt" viewBox="0 0 512 512" width="512pt" xmlns="http://www.w3.org/2000/svg"><path d="m512 216v-166c0-27.570312-22.429688-50-50-50h-166c-16.339844 0-30.871094 7.878906-40 20.035156-9.128906-12.15625-23.660156-20.035156-40-20.035156h-166c-27.570312 0-50 22.429688-50 50v166c0 16.339844 7.878906 30.871094 20.035156 40-12.15625 9.128906-20.035156 23.660156-20.035156 40v166c0 27.570312 22.429688 50 50 50h166c16.339844 0 30.871094-7.878906 40-20.035156 9.128906 12.15625 23.660156 20.035156 40 20.035156h166c27.570312 0 50-22.429688 50-50v-166c0-16.339844-7.878906-30.871094-20.035156-40 12.15625-9.128906 20.035156-23.660156 20.035156-40zm-492 0v-166c0-16.542969 13.457031-30 30-30h166c16.542969 0 30 13.457031 30 30v166c0 16.542969-13.457031 30-30 30h-166c-16.542969 0-30-13.457031-30-30zm246.035156 40c-3.800781 2.855469-7.179687 6.234375-10.035156 10.035156-2.855469-3.800781-6.234375-7.179687-10.035156-10.035156 3.800781-2.855469 7.179687-6.234375 10.035156-10.035156 2.855469 3.800781 6.234375 7.179687 10.035156 10.035156zm-50.035156 236h-166c-16.542969 0-30-13.457031-30-30v-166c0-16.542969 13.457031-30 30-30h166c16.542969 0 30 13.457031 30 30v166c0 16.542969-13.457031 30-30 30zm276-196v166c0 16.542969-13.457031 30-30 30h-166c-16.542969 0-30-13.457031-30-30v-166c0-16.542969 13.457031-30 30-30h166c16.542969 0 30 13.457031 30 30zm0-80c0 16.542969-13.457031 30-30 30h-166c-16.542969 0-30-13.457031-30-30v-166c0-16.542969 13.457031-30 30-30h166c16.542969 0 30 13.457031 30 30zm0 0"/><path d="m64 146c5.523438 0 10-4.476562 10-10v-26h32v26c0 5.523438 4.476562 10 10 10s10-4.476562 10-10v-72c0-5.523438-4.476562-10-10-10s-10 4.476562-10 10v26h-32v-26c0-5.523438-4.476562-10-10-10s-10 4.476562-10 10v72c0 5.523438 4.476562 10 10 10zm0 0"/><path d="m178.632812 382c-8.820312 0-16-7.179688-16-16v-46c0-5.523438-4.476562-10-10-10-5.523437 0-10 4.476562-10 10v46c0 19.851562 16.148438 36 36 36 5.523438 0 10-4.476562 10-10s-4.476562-10-10-10zm0 0"/><path d="m395.832031 136v-38.25c0-5.523438-4.476562-10-10-10-5.523437 0-10 4.476562-10 10v38.25c0 5.523438 4.476563 10 10 10 5.523438 0 10-4.476562 10-10zm0 0"/><path d="m310.167969 146h34.667969c5.519531 0 10-4.476562 10-10s-4.480469-10-10-10h-24.667969v-62c0-5.523438-4.476563-10-10-10-5.523438 0-10 4.476562-10 10v72c0 5.523438 4.476562 10 10 10zm0 0"/><path d="m81.75 330h16.5c4.273438 0 7.75 3.476562 7.75 7.75 0 5.523438 4.476562 10 10 10s10-4.476562 10-10c0-15.300781-12.449219-27.75-27.75-27.75h-16.5c-15.300781 0-27.75 12.449219-27.75 27.75v36.5c0 15.300781 12.449219 27.75 27.75 27.75h16.5c15.300781 0 27.75-12.449219 27.75-27.75 0-5.523438-4.476562-10-10-10s-10 4.476562-10 10c0 4.273438-3.476562 7.75-7.75 7.75h-16.5c-4.273438 0-7.75-3.476562-7.75-7.75v-36.5c0-4.273438 3.476562-7.75 7.75-7.75zm0 0"/><path d="m310.167969 330h16v62c0 5.523438 4.476562 10 10 10 5.523437 0 10-4.476562 10-10v-62h16c5.523437 0 10-4.476562 10-10s-4.476563-10-10-10h-52c-5.523438 0-10 4.476562-10 10s4.476562 10 10 10zm0 0"/><path d="m385.832031 402c5.523438 0 10-4.476562 10-10v-38.25c0-5.523438-4.476562-10-10-10-5.523437 0-10 4.476562-10 10v38.25c0 5.523438 4.480469 10 10 10zm0 0"/><path d="m108 438h-44c-5.523438 0-10 4.476562-10 10s4.476562 10 10 10h44c5.523438 0 10-4.476562 10-10s-4.476562-10-10-10zm0 0"/><path d="m148 437.996094c-2.628906 0-5.210938 1.070312-7.070312 2.929687-1.859376 1.871094-2.929688 4.4375-2.929688 7.070313 0 2.628906 1.070312 5.207031 2.929688 7.078125 1.859374 1.859375 4.441406 2.921875 7.070312 2.921875s5.210938-1.0625 7.070312-2.921875c1.859376-1.871094 2.929688-4.4375 2.929688-7.078125 0-2.632813-1.070312-5.210938-2.929688-7.070313-1.859374-1.859375-4.441406-2.929687-7.070312-2.929687zm0 0"/><path d="m310.167969 458h84c5.523437 0 10-4.476562 10-10s-4.476563-10-10-10h-84c-5.523438 0-10 4.476562-10 10s4.476562 10 10 10zm0 0"/><path d="m148 192h-84c-5.523438 0-10 4.476562-10 10s4.476562 10 10 10h84c5.523438 0 10-4.476562 10-10s-4.476562-10-10-10zm0 0"/><path d="m354.167969 192h-44c-5.523438 0-10 4.476562-10 10s4.476562 10 10 10h44c5.523437 0 10-4.476562 10-10s-4.480469-10-10-10zm0 0"/><path d="m394.171875 191.996094c-2.640625 0-5.210937 1.070312-7.070313 2.929687-1.871093 1.859375-2.929687 4.4375-2.929687 7.070313 0 2.640625 1.066406 5.21875 2.929687 7.070312 1.859376 1.867188 4.4375 2.929688 7.070313 2.929688 2.617187 0 5.199219-1.0625 7.066406-2.929688 1.863281-1.863281 2.933594-4.429687 2.933594-7.070312 0-2.632813-1.070313-5.210938-2.933594-7.070313-1.867187-1.859375-4.4375-2.929687-7.066406-2.929687zm0 0"/></svg>